<svg width="32" height="32" viewBox="0 0 32 32" fill="none" xmlns="http://www.w3.org/2000/svg">
<path d="M16 4H6.66667C5.95942 4 5.28115 4.28095 4.78105 4.78105C4.28095 5.28115 4 5.95942 4 6.66667V25.3333C4 26.0406 4.28095 26.7189 4.78105 27.219C5.28115 27.719 5.95942 28 6.66667 28H25.3333C26.0406 28 26.7189 27.719 27.219 27.219C27.719 26.7189 28 26.0406 28 25.3333V16" stroke="black" stroke-width="2.66667" stroke-linecap="round" stroke-linejoin="round"/>
<path d="M24.5 3.5C25.0304 2.96957 25.7499 2.67157 26.5 2.67157C27.2502 2.67157 27.9696 2.96957 28.5 3.5C29.0304 4.03043 29.3284 4.74986 29.3284 5.5C29.3284 6.25015 29.0304 6.96957 28.5 7.5L16.4827 19.5187C16.1661 19.835 15.775 20.0666 15.3453 20.192L11.5147 21.312C11.3999 21.3455 11.2783 21.3475 11.1626 21.3178C11.0468 21.2881 10.9411 21.2279 10.8566 21.1434C10.7721 21.0589 10.7119 20.9532 10.6822 20.8375C10.6525 20.7217 10.6545 20.6001 10.688 20.4853L11.808 16.6547C11.934 16.2254 12.1661 15.8347 12.4827 15.5187L24.5 3.5Z" stroke="black" stroke-width="2.66667" stroke-linecap="round" stroke-linejoin="round"/>
</svg>
