<svg width="32" height="32" viewBox="0 0 32 32" fill="none" xmlns="http://www.w3.org/2000/svg">
<path d="M31.9894 26.563C32.1107 26.2351 18.1822 15.718 18.1822 15.718C16.4384 14.4312 15.5213 14.411 13.7969 15.718C13.7969 15.718 -0.11132 26.2266 0.00574219 26.55L0.00292969 26.5523C0.00436719 26.5551 0.00667969 26.5571 0.00861719 26.5596C0.12657 26.8811 0.298145 27.1803 0.516055 27.4445C0.608117 27.5561 0.719055 27.6496 0.825742 27.7468L0.820555 27.7508C0.829055 27.7583 0.840367 27.7618 0.848867 27.7694C1.30105 28.1728 1.8713 28.434 2.5048 28.5086C2.51474 28.5098 2.52274 28.515 2.53268 28.5161H2.57093C2.66724 28.5253 2.7588 28.5485 2.85743 28.5485H29.1525C30.4473 28.5485 31.5443 27.7342 31.9801 26.5928C31.9852 26.5843 31.9932 26.5781 31.998 26.5694L31.9894 26.563Z" fill="#FCD535"/>
<path d="M16.0085 14.511L0.0761719 26.4602V9.53217C0.0761719 7.88217 1.41348 6.54486 3.06348 6.54486H28.9535C30.6035 6.54486 31.9408 7.88217 31.9408 9.53217V26.4602L16.0085 14.511Z" fill="#F0B90B"/>
<path d="M0.261719 8.49347L13.8645 19.1778C15.5814 20.4447 16.4844 20.4647 18.1822 19.1778L31.7637 8.51041C31.528 8.08328 31.1753 7.74584 30.7718 7.47678L30.9587 7.33041C30.5027 6.91535 29.9199 6.64628 29.273 6.57678L2.74453 6.57772C2.09941 6.64628 1.51566 6.91628 1.06066 7.33041L1.24609 7.47497C0.847344 7.74028 0.497844 8.07191 0.261719 8.49347Z" fill="#EDECE6"/>
<path d="M0.257398 8.51585C0.137961 8.83866 13.8519 19.1937 13.8519 19.1937C15.5688 20.4606 16.4718 20.4806 18.1696 19.1937C18.1696 19.1937 31.8635 8.84704 31.7482 8.52866L31.751 8.52635C31.7496 8.52354 31.7473 8.52173 31.7455 8.51916C31.6294 8.2026 31.4604 7.90803 31.2458 7.64798C31.1552 7.53804 31.046 7.44604 30.941 7.35029L30.9461 7.34635C30.9377 7.33891 30.9266 7.33541 30.9182 7.32798C30.473 6.93085 29.9115 6.6736 29.2878 6.60016C29.2781 6.59898 29.2701 6.59391 29.2604 6.59273H29.2228C29.128 6.58366 29.0378 6.56091 28.9406 6.56091H3.05065C1.77577 6.56091 0.695648 7.36266 0.266711 8.48648C0.261586 8.49485 0.253711 8.50091 0.249023 8.50948L0.257398 8.51585Z" fill="#707A8A"/>
<path d="M18.2127 9.66529H15.7982C15.6962 9.66529 15.5983 9.70582 15.5262 9.77796C15.454 9.85011 15.4135 9.94795 15.4135 10.05V11.4076C15.4135 11.5096 15.454 11.6075 15.5262 11.6796C15.5983 11.7518 15.6962 11.7923 15.7982 11.7923H17.7616C17.8636 11.7923 17.9615 11.8328 18.0336 11.905C18.1058 11.9771 18.1463 12.075 18.1463 12.177V12.903C18.1463 13.005 18.1058 13.1029 18.0336 13.175C17.9615 13.2471 17.8636 13.2877 17.7616 13.2877H15.7982C15.6962 13.2877 15.5983 13.3282 15.5262 13.4003C15.454 13.4725 15.4135 13.5703 15.4135 13.6724V15.146C15.4135 15.248 15.454 15.3459 15.5262 15.418C15.5983 15.4901 15.6962 15.5307 15.7982 15.5307H18.3804C18.4825 15.5307 18.5803 15.5712 18.6524 15.6433C18.7246 15.7155 18.7651 15.8133 18.7651 15.9154V16.6929C18.7651 16.7949 18.7246 16.8928 18.6524 16.9649C18.5803 17.0371 18.4825 17.0776 18.3804 17.0776H13.6454C13.5434 17.0776 13.4456 17.0371 13.3734 16.9649C13.3013 16.8928 13.2607 16.7949 13.2607 16.6929V8.52879C13.2607 8.42677 13.3013 8.32892 13.3734 8.25678C13.4456 8.18463 13.5434 8.1441 13.6454 8.1441H18.3211C18.5554 8.1441 18.7352 8.35173 18.7018 8.58367L18.5935 9.33542C18.5803 9.427 18.5345 9.51077 18.4646 9.57135C18.3946 9.63194 18.3052 9.66529 18.2127 9.66529Z" fill="#202630"/>
</svg>
