<svg width="160" height="160" viewBox="0 0 160 160" fill="none" xmlns="http://www.w3.org/2000/svg">
<path fill-rule="evenodd" clip-rule="evenodd" d="M80 13.3334C88.7548 13.3334 97.4239 15.0577 105.512 18.408C113.601 21.7583 120.95 26.6689 127.141 32.8595C133.331 39.0501 138.242 46.3994 141.592 54.4877C144.942 62.5761 146.667 71.2452 146.667 80C146.667 116.819 116.819 146.667 80 146.667C43.1813 146.667 13.3334 116.819 13.3334 80C13.3334 43.1813 43.1813 13.3334 80 13.3334ZM86.6669 86.6669H73.3334C56.8287 86.6669 42.6591 96.6628 36.5475 110.932C46.2175 124.492 62.0763 133.333 80 133.333C97.9237 133.333 113.783 124.492 123.453 110.931C117.341 96.6628 103.172 86.6669 86.6669 86.6669ZM80 33.3334C68.9544 33.3334 60 42.2878 60 53.3334C60 64.3791 68.9544 73.3334 80 73.3334C91.0456 73.3334 100 64.3791 100 53.3334C100 42.2878 91.0459 33.3334 80 33.3334Z" fill="#FFA629"/>
</svg>
